<svg xmlns="http://www.w3.org/2000/svg" width="1280" height="720" viewBox="0 0 1280 720" role="img" aria-labelledby="title desc">
  <title id="title">Gap + Height Perturbation</title>
  <desc id="desc">Video placeholder for the terrain-aware locomotion final project page.</desc>
  <defs>
    <linearGradient id="bg" x1="0" y1="0" x2="1" y2="1">
      <stop offset="0" stop-color="#10211f"/>
      <stop offset="1" stop-color="#152d29"/>
    </linearGradient>
    <linearGradient id="panel" x1="0" y1="0" x2="1" y2="0">
      <stop offset="0" stop-color="#ffffff" stop-opacity=".10"/>
      <stop offset="1" stop-color="#ffffff" stop-opacity=".02"/>
    </linearGradient>
    <filter id="shadow" x="-20%" y="-20%" width="140%" height="140%">
      <feDropShadow dx="0" dy="16" stdDeviation="20" flood-color="#000000" flood-opacity=".28"/>
    </filter>
  </defs>
  <rect width="1280" height="720" fill="url(#bg)"/>
  <g opacity=".26" stroke="#ffffff" stroke-width="1">
    <path d="M0 120H1280M0 240H1280M0 360H1280M0 480H1280M0 600H1280"/>
    <path d="M160 0V720M320 0V720M480 0V720M640 0V720M800 0V720M960 0V720M1120 0V720"/>
  </g>
  <circle cx="1075" cy="118" r="280" fill="#f1a060" opacity=".18"/>
  <circle cx="1185" cy="585" r="230" fill="#f1a060" opacity=".10"/>
  <rect x="72" y="78" width="1136" height="564" rx="24" fill="url(#panel)" stroke="#ffffff" stroke-opacity=".18"/>
  <text x="118" y="150" fill="#f1a060" font-family="Arial, Helvetica, sans-serif" font-size="23" font-weight="700" letter-spacing="3">SIMULATION CASE</text>
  <text x="118" y="252" fill="#ffffff" font-family="Georgia, Times New Roman, serif" font-size="71" font-weight="700">Gap + Height Perturbation</text>
  <text x="118" y="307" fill="#d9e6e2" font-family="Arial, Helvetica, sans-serif" font-size="28">Use a clip where terrain mismatch tests the policy's robust response.</text>
  <g transform="translate(118,390)" filter="url(#shadow)">
    
<g fill="none" stroke="#fff0df" stroke-linecap="round" stroke-linejoin="round">
  <path d="M10 250l263-72v71L10 321z" fill="#74523a" stroke="none"/>
  <path d="M480 117l300-82v80L480 198z" fill="#846044" stroke="none"/>
  <path d="M272 178c37-12 97-31 155-52" stroke="#f1a060" stroke-width="6" stroke-dasharray="10 10"/>
  <g stroke-width="8">
    <path d="M266 73c29-51 117-62 193-22 36 19 59 44 68 79l-17 43c-80 34-191 25-239-10-17-13-20-49-5-90z" fill="#e5aa65" stroke="#ffe0b1"/>
    <circle cx="359" cy="39" r="22" fill="#563a2b" stroke="#ffe0b1"/>
    <path d="M292 162l-50 94m28-48l-25 60m117-80l-13 95m7-42l-3 57m89-107l61 66m-22-36l43 51m-201-126l-64 49m38-28l-41 54"/>
  </g>
  <g transform="translate(587,298)">
    <rect width="183" height="82" rx="9" fill="#ffffff" fill-opacity=".08" stroke="#f1a060" stroke-width="2"/>
    <path d="M18 59l28-28 24 10 33-26 28 20 25-13" stroke="#f1a060" stroke-width="5"/>
    <text x="18" y="22" fill="#fff0df" font-family="Arial" font-size="15" font-weight="700">HEIGHT OFFSET ±5 CM</text>
  </g>
</g>
  </g>
  <g transform="translate(1005,550)">
    <rect x="0" y="0" width="132" height="42" rx="21" fill="#ffffff" fill-opacity=".13" stroke="#ffffff" stroke-opacity=".24"/>
    <path d="M24 13l13 8-13 8z" fill="#ffffff"/>
    <text x="51" y="28" fill="#ffffff" font-family="Arial, Helvetica, sans-serif" font-size="15" font-weight="700">REPLACE</text>
  </g>
  <text x="118" y="594" fill="#b8cbc6" font-family="Arial, Helvetica, sans-serif" font-size="18">Replace this bundled placeholder with your project video.</text>
</svg>
