<svg xmlns="http://www.w3.org/2000/svg" width="1280" height="720" viewBox="0 0 1280 720" role="img" aria-labelledby="title desc">
  <title id="title">Terrain-Aware Traversal</title>
  <desc id="desc">Video placeholder for the terrain-aware locomotion final project page.</desc>
  <defs>
    <linearGradient id="bg" x1="0" y1="0" x2="1" y2="1">
      <stop offset="0" stop-color="#10211f"/>
      <stop offset="1" stop-color="#152d29"/>
    </linearGradient>
    <linearGradient id="panel" x1="0" y1="0" x2="1" y2="0">
      <stop offset="0" stop-color="#ffffff" stop-opacity=".10"/>
      <stop offset="1" stop-color="#ffffff" stop-opacity=".02"/>
    </linearGradient>
    <filter id="shadow" x="-20%" y="-20%" width="140%" height="140%">
      <feDropShadow dx="0" dy="16" stdDeviation="20" flood-color="#000000" flood-opacity=".28"/>
    </filter>
  </defs>
  <rect width="1280" height="720" fill="url(#bg)"/>
  <g opacity=".26" stroke="#ffffff" stroke-width="1">
    <path d="M0 120H1280M0 240H1280M0 360H1280M0 480H1280M0 600H1280"/>
    <path d="M160 0V720M320 0V720M480 0V720M640 0V720M800 0V720M960 0V720M1120 0V720"/>
  </g>
  <circle cx="1075" cy="118" r="280" fill="#51c5ac" opacity=".18"/>
  <circle cx="1185" cy="585" r="230" fill="#51c5ac" opacity=".10"/>
  <rect x="72" y="78" width="1136" height="564" rx="24" fill="url(#panel)" stroke="#ffffff" stroke-opacity=".18"/>
  <text x="118" y="150" fill="#51c5ac" font-family="Arial, Helvetica, sans-serif" font-size="23" font-weight="700" letter-spacing="3">HERO DEMO</text>
  <text x="118" y="252" fill="#ffffff" font-family="Georgia, Times New Roman, serif" font-size="71" font-weight="700">Terrain-Aware Traversal</text>
  <text x="118" y="307" fill="#d9e6e2" font-family="Arial, Helvetica, sans-serif" font-size="28">Unitree Go2 · LiDAR elevation map · reinforcement learning</text>
  <g transform="translate(118,390)" filter="url(#shadow)">
    
<g stroke="#eaf8f4" fill="none" stroke-width="8" stroke-linecap="round" stroke-linejoin="round">
  <path d="M40 214L242 150 242 214 40 278z" fill="#265c54" stroke="none"/>
  <path d="M284 140L454 86 454 152 284 206z" fill="#3d8274" stroke="none"/>
  <path d="M625 62L818 0 818 72 625 134z" fill="#2b695f" stroke="none"/>
  <path d="M225 117c30-68 144-100 240-52 45 22 75 51 86 90l-21 54c-97 49-252 49-322 6-24-14-29-60 17-98z" fill="#e5aa65" stroke="#f8d69f"/>
  <circle cx="354" cy="70" r="26" fill="#17322d" stroke="#f8d69f"/>
  <path d="M259 196l-61 101m33-51l-30 73m156-85l-18 105m8-52l-5 72m126-112l72 73m-26-45l49 58m-274-82l-84 64m48-36l-48 62"/>
  <path d="M536 30h152M536 60h152M536 90h152M566 0v120M596 0v120M626 0v120M656 0v120" stroke="#51c5ac" stroke-width="3" opacity=".8"/>
  <rect x="565" y="60" width="30" height="30" fill="#51c5ac" stroke="none" opacity=".9"/>
</g>
  </g>
  <g transform="translate(1005,550)">
    <rect x="0" y="0" width="132" height="42" rx="21" fill="#ffffff" fill-opacity=".13" stroke="#ffffff" stroke-opacity=".24"/>
    <path d="M24 13l13 8-13 8z" fill="#ffffff"/>
    <text x="51" y="28" fill="#ffffff" font-family="Arial, Helvetica, sans-serif" font-size="15" font-weight="700">REPLACE</text>
  </g>
  <text x="118" y="594" fill="#b8cbc6" font-family="Arial, Helvetica, sans-serif" font-size="18">Replace this bundled placeholder with your project video.</text>
</svg>
