<svg xmlns="http://www.w3.org/2000/svg" width="1280" height="720" viewBox="0 0 1280 720" role="img" aria-labelledby="title desc">
  <title id="title">Unitree Go2 Deployment</title>
  <desc id="desc">Video placeholder for the terrain-aware locomotion final project page.</desc>
  <defs>
    <linearGradient id="bg" x1="0" y1="0" x2="1" y2="1">
      <stop offset="0" stop-color="#10211f"/>
      <stop offset="1" stop-color="#152d29"/>
    </linearGradient>
    <linearGradient id="panel" x1="0" y1="0" x2="1" y2="0">
      <stop offset="0" stop-color="#ffffff" stop-opacity=".10"/>
      <stop offset="1" stop-color="#ffffff" stop-opacity=".02"/>
    </linearGradient>
    <filter id="shadow" x="-20%" y="-20%" width="140%" height="140%">
      <feDropShadow dx="0" dy="16" stdDeviation="20" flood-color="#000000" flood-opacity=".28"/>
    </filter>
  </defs>
  <rect width="1280" height="720" fill="url(#bg)"/>
  <g opacity=".26" stroke="#ffffff" stroke-width="1">
    <path d="M0 120H1280M0 240H1280M0 360H1280M0 480H1280M0 600H1280"/>
    <path d="M160 0V720M320 0V720M480 0V720M640 0V720M800 0V720M960 0V720M1120 0V720"/>
  </g>
  <circle cx="1075" cy="118" r="280" fill="#d8ca70" opacity=".18"/>
  <circle cx="1185" cy="585" r="230" fill="#d8ca70" opacity=".10"/>
  <rect x="72" y="78" width="1136" height="564" rx="24" fill="url(#panel)" stroke="#ffffff" stroke-opacity=".18"/>
  <text x="118" y="150" fill="#d8ca70" font-family="Arial, Helvetica, sans-serif" font-size="23" font-weight="700" letter-spacing="3">REAL-ROBOT CASE</text>
  <text x="118" y="252" fill="#ffffff" font-family="Georgia, Times New Roman, serif" font-size="71" font-weight="700">Unitree Go2 Deployment</text>
  <text x="118" y="307" fill="#d9e6e2" font-family="Arial, Helvetica, sans-serif" font-size="28">Show the robot, terrain, and successful traversal in a single clear shot.</text>
  <g transform="translate(118,390)" filter="url(#shadow)">
    
<g fill="none" stroke="#fffbe2" stroke-linecap="round" stroke-linejoin="round">
  <path d="M15 279l225-48v53L15 332z" fill="#56634d" stroke="none"/>
  <path d="M309 215l193-41v52l-193 42z" fill="#687a5c" stroke="none"/>
  <path d="M561 161l222-46v55l-222 47z" fill="#4e5b46" stroke="none"/>
  <g stroke-width="8">
    <path d="M216 96c31-53 130-65 212-22 37 20 63 49 71 86l-17 46c-86 37-208 27-258-13-18-14-22-55-8-97z" fill="#bfc2bb" stroke="#f6f8f5"/>
    <circle cx="321" cy="58" r="25" fill="#28332c" stroke="#f6f8f5"/>
    <circle cx="321" cy="58" r="5" fill="#d8ca70" stroke="none"/>
    <path d="M245 194l-59 90m30-47l-33 59m128-82l-10 97m4-44l0 58m95-107l61 69m-22-38l45 53m-211-124l-66 49m36-26l-43 57"/>
  </g>
  <g transform="translate(580,248)">
    <rect width="192" height="112" rx="10" fill="#ffffff" fill-opacity=".07" stroke="#d8ca70" stroke-width="2"/>
    <path d="M20 22h150M20 47h150M20 72h150M20 97h150M45 12v95M70 12v95M95 12v95M120 12v95M145 12v95" stroke="#d8ca70" stroke-width="2" opacity=".8"/>
    <rect x="95" y="47" width="25" height="25" fill="#d8ca70" stroke="none"/>
  </g>
</g>
  </g>
  <g transform="translate(1005,550)">
    <rect x="0" y="0" width="132" height="42" rx="21" fill="#ffffff" fill-opacity=".13" stroke="#ffffff" stroke-opacity=".24"/>
    <path d="M24 13l13 8-13 8z" fill="#ffffff"/>
    <text x="51" y="28" fill="#ffffff" font-family="Arial, Helvetica, sans-serif" font-size="15" font-weight="700">REPLACE</text>
  </g>
  <text x="118" y="594" fill="#b8cbc6" font-family="Arial, Helvetica, sans-serif" font-size="18">Replace this bundled placeholder with your project video.</text>
</svg>
