<svg xmlns="http://www.w3.org/2000/svg" width="1280" height="720" viewBox="0 0 1280 720" role="img" aria-labelledby="title desc">
  <title id="title">Stepping-Stone Traversal</title>
  <desc id="desc">Video placeholder for the terrain-aware locomotion final project page.</desc>
  <defs>
    <linearGradient id="bg" x1="0" y1="0" x2="1" y2="1">
      <stop offset="0" stop-color="#10211f"/>
      <stop offset="1" stop-color="#152d29"/>
    </linearGradient>
    <linearGradient id="panel" x1="0" y1="0" x2="1" y2="0">
      <stop offset="0" stop-color="#ffffff" stop-opacity=".10"/>
      <stop offset="1" stop-color="#ffffff" stop-opacity=".02"/>
    </linearGradient>
    <filter id="shadow" x="-20%" y="-20%" width="140%" height="140%">
      <feDropShadow dx="0" dy="16" stdDeviation="20" flood-color="#000000" flood-opacity=".28"/>
    </filter>
  </defs>
  <rect width="1280" height="720" fill="url(#bg)"/>
  <g opacity=".26" stroke="#ffffff" stroke-width="1">
    <path d="M0 120H1280M0 240H1280M0 360H1280M0 480H1280M0 600H1280"/>
    <path d="M160 0V720M320 0V720M480 0V720M640 0V720M800 0V720M960 0V720M1120 0V720"/>
  </g>
  <circle cx="1075" cy="118" r="280" fill="#78b7ec" opacity=".18"/>
  <circle cx="1185" cy="585" r="230" fill="#78b7ec" opacity=".10"/>
  <rect x="72" y="78" width="1136" height="564" rx="24" fill="url(#panel)" stroke="#ffffff" stroke-opacity=".18"/>
  <text x="118" y="150" fill="#78b7ec" font-family="Arial, Helvetica, sans-serif" font-size="23" font-weight="700" letter-spacing="3">SIMULATION CASE</text>
  <text x="118" y="252" fill="#ffffff" font-family="Georgia, Times New Roman, serif" font-size="71" font-weight="700">Stepping-Stone Traversal</text>
  <text x="118" y="307" fill="#d9e6e2" font-family="Arial, Helvetica, sans-serif" font-size="28">Use a short clip showing stable foothold selection over discrete supports.</text>
  <g transform="translate(118,390)" filter="url(#shadow)">
    
<g fill="none" stroke="#dfefff" stroke-linecap="round" stroke-linejoin="round">
  <g fill="#295e88" stroke="none">
    <path d="M20 245l130-35v48L20 294z"/><path d="M196 188l116-32v46l-116 33z"/><path d="M370 132l150-42v53l-150 44z"/><path d="M585 71l135-38v49l-135 40z"/>
  </g>
  <g stroke-width="8">
    <path d="M164 90c24-48 110-62 184-27 32 15 57 37 66 67l-14 39c-70 33-184 32-230 3-20-13-20-45-6-82z" fill="#e8bb77" stroke="#f6d7a2"/>
    <circle cx="248" cy="53" r="22" fill="#1b3e5b" stroke="#f6d7a2"/>
    <path d="M194 159l-37 80m18-37l-16 56m113-73l-8 85m2-38l-1 53m86-89l54 57m-16-34l38 45m-202-116l-56 42m29-24l-35 48"/>
  </g>
  <path d="M18 320C175 268 270 262 420 202S667 107 800 60" stroke="#78b7ec" stroke-width="5" stroke-dasharray="12 13"/>
</g>
  </g>
  <g transform="translate(1005,550)">
    <rect x="0" y="0" width="132" height="42" rx="21" fill="#ffffff" fill-opacity=".13" stroke="#ffffff" stroke-opacity=".24"/>
    <path d="M24 13l13 8-13 8z" fill="#ffffff"/>
    <text x="51" y="28" fill="#ffffff" font-family="Arial, Helvetica, sans-serif" font-size="15" font-weight="700">REPLACE</text>
  </g>
  <text x="118" y="594" fill="#b8cbc6" font-family="Arial, Helvetica, sans-serif" font-size="18">Replace this bundled placeholder with your project video.</text>
</svg>
